# xmcd
#
# Track frame offsets: 
#        150
#        17468
#        32866
#        47932
#        63056
#        79302
#
# Disc length: 1287 seconds
#
# Revision: 0
# Processed by: cddbd v1.5.1PL0 Copyright (c) Steve Scherf et al.
# Submitted via: ExactAudioCopy v0.90b3
#
DISCID=43050506
DTITLE=Various Artist - Thank You Fans, Thank You Bands
DYEAR=2003
DGENRE=Country New
TTITLE0=Katy Ipu feat. Carola Adam, Larry Schuba, Nicola Frankl, Herma
TTITLE0=nn Lammers Meyer - Thank You Fans, Thank You Bands
TTITLE1=Katy Ipu feat. Tom Bopp, Iris Paech, Kai Ulatowski - I'm Gonna
TTITLE1=Have A Party
TTITLE2=Katy Ipu feat. Bobby Grass and Mike Strauss - That's What Countr
TTITLE2=y's All About
TTITLE3=Andy and Matt Thompson feat. The Thompson Brothers - It's Gonna 
TTITLE3=Be A Good Year
TTITLE4=Framilia feat. Frank M. Lange - Weekend Jamboree
TTITLE5=Katy Ipu feat. Thommy "Doc" Schneider - Thank You Fans, Thank 
TTITLE5=You Bands
EXTD=
EXTT0=
EXTT1=
EXTT2=
EXTT3=
EXTT4=
EXTT5=
PLAYORDER=
